<svg width="86" height="76" viewBox="0 0 86 76" fill="none" xmlns="http://www.w3.org/2000/svg">
<path d="M60.65 0.579989C51.31 2.22999 45.46 8.77999 43 12.13C35.4 1.37999 19.21 -5.61001 5.71998 7.57999C-3.11002 17.64 0.719981 31.58 6.03998 41.18C6.16767 41.4206 6.35846 41.6219 6.5919 41.7623C6.82533 41.9027 7.09258 41.9769 7.36498 41.9769C7.63738 41.9769 7.90463 41.9027 8.13807 41.7623C8.3715 41.6219 8.5623 41.4206 8.68998 41.18C9.34998 38.54 10.25 32.41 9.68998 29.75C9.22998 27.97 9.32998 27.55 9.35998 27.48C9.38998 27.41 9.45998 27.38 9.86998 27.24C11.18 26.92 11.87 29.01 12.07 30.77C12.36 33.58 12.53 36.87 14.64 37.85C16.75 38.83 18.32 37.43 19.3 36.85C20.93 35.85 22.97 34.57 24.93 33.1C27.69 31.1 30.22 28.79 32.71 26.9C33.71 26.13 35.78 24.52 36.6 24.64C37.2 25.15 37.1 25.9 33.27 28.93C25.84 34.93 24.77 35.78 26.08 37.73C27.08 38.73 28.28 37.98 29.27 37.35C32.27 35.35 38.53 31.04 40.75 29.82C41.98 29.1 42.49 29.14 42.58 29.15C42.74 29.4 43.01 29.82 41.18 31.06C40.74 31.34 32.96 36.75 30.68 38.29C30.2298 38.5721 29.7958 38.8793 29.38 39.21C29.1171 39.4021 28.9126 39.6633 28.7893 39.9646C28.666 40.2659 28.6287 40.5956 28.6816 40.9168C28.7344 41.2381 28.8754 41.5384 29.0887 41.7844C29.302 42.0303 29.5794 42.2123 29.89 42.31C30.77 42.58 31.59 42.31 36.03 39.94C38.23 38.75 39.81 37.81 40.97 37.11L42.26 36.35C43.49 35.66 44.65 35.46 44.83 35.74C45.01 36.02 45.17 36.31 42.93 37.83C40.47 39.5 36.12 42.42 34.93 43.19C32.32 44.83 31.65 45.35 31.49 46.29C31.4543 46.5291 31.4697 46.773 31.5352 47.0057C31.6007 47.2384 31.7148 47.4546 31.87 47.64C32.2041 47.9996 32.6587 48.2237 33.1474 48.2698C33.636 48.3159 34.1245 48.1807 34.52 47.89C35.09 47.67 37.73 46.16 39.68 45.03C41.15 44.2 43.68 42.61 45.02 42.62C44.94 42.79 44.59 43.32 43.02 44.43C41.45 45.54 39 46.8 36.07 48.5C32.91 50.31 29.61 52.68 26.51 54.3C24.818 55.186 23.0593 55.9383 21.25 56.55C21.057 56.6069 20.8775 56.7019 20.7221 56.8296C20.5666 56.9572 20.4385 57.1148 20.3452 57.293C20.2519 57.4712 20.1954 57.6664 20.179 57.8668C20.1627 58.0673 20.1868 58.269 20.25 58.46C20.3648 58.812 20.6075 59.1081 20.93 59.29C27.471 65.3587 34.607 70.7527 42.23 75.39C42.4747 75.5468 42.7593 75.6301 43.05 75.6301C43.3407 75.6301 43.6252 75.5468 43.87 75.39C45.27 74.53 65.6 62.45 76.57 46.33C76.6465 45.9536 76.5825 45.5623 76.39 45.23C76.2592 45.0113 76.0749 44.8296 75.8545 44.7018C75.6341 44.5741 75.3847 44.5046 75.13 44.5C73.0217 44.4079 70.9312 44.0723 68.9 43.5C66.07 42.74 62.9 41.41 60.04 40.5C57.3723 39.7816 54.7672 38.8485 52.25 37.71C53.8677 38.0014 55.4571 38.433 57 39C59.18 39.68 60.4 40 61.08 40.19C61.5108 40.3501 61.9836 40.357 62.4189 40.2095C62.8541 40.062 63.2253 39.7691 63.47 39.38C63.5869 39.1714 63.6564 38.9396 63.6737 38.7011C63.691 38.4626 63.6556 38.2233 63.57 38C63.23 37.15 62.44 36.8 60.06 36C58.93 35.6 54.85 34 52.54 33.09C51.12 32.53 50.81 32.2 50.74 32.09C51.3788 31.9579 52.0421 32.0135 52.65 32.25L53.83 32.64C54.9 32.99 56.37 33.48 58.39 34.05C62.63 35.25 63.28 35.28 64.02 34.85C64.2953 34.6937 64.5218 34.4641 64.6744 34.1867C64.8269 33.9093 64.8994 33.595 64.8839 33.2788C64.8683 32.9626 64.7653 32.657 64.5863 32.3959C64.4073 32.1348 64.1593 31.9285 63.87 31.8C61.57 30.8 53.55 27.61 52.72 27.27C51.5 26.79 51.35 26.44 51.35 26.44C51.8073 26.4291 52.2624 26.5072 52.69 26.67C54.69 27.27 60.69 29.67 63.42 30.74C64.32 31.06 65.68 31.55 66.42 30.37C66.5392 30.1685 66.6151 29.9444 66.6426 29.7119C66.6702 29.4794 66.6488 29.2437 66.58 29.02C66.31 28.15 65.83 27.49 58.85 24.14C58.09 23.76 55.09 22.41 55.38 21.68C56.31 21.58 58.38 22.68 59.38 23.11C61.48 24.11 63.83 25.4 66.24 26.47C68.12 27.32 70.02 27.98 71.54 28.52C73.06 29.06 74.74 29.3 75.76 28.44C77.41 27.16 76.95 24.44 76.66 21.97C76.43 19.97 76.95 19.3 77.12 19.13C77.2155 19.0425 77.3344 18.9846 77.4622 18.9633C77.59 18.942 77.7212 18.9582 77.84 19.01C77.949 19.5765 77.9792 20.1552 77.93 20.73C77.85 23.56 81.1 30.73 81.47 31.57C81.5743 31.7922 81.7312 31.9856 81.9272 32.1335C82.1231 32.2814 82.3522 32.3793 82.5945 32.4187C82.8368 32.4581 83.0851 32.4378 83.3178 32.3596C83.5505 32.2815 83.7606 32.1477 83.93 31.97C84.1408 31.7379 84.2798 31.4495 84.33 31.14C89.93 10.32 75.77 -0.910011 60.65 0.579989ZM82.29 25.74C81.5912 24.1214 81.1136 22.4161 80.87 20.67C80.87 18.88 81 16.16 77.79 15.84C74.87 15.65 73.15 18.26 73.62 22.18C73.8405 23.4103 73.9043 24.6636 73.81 25.91C73.5183 25.8924 73.2314 25.8282 72.96 25.72L72.47 25.55C71 25 69.18 24.39 67.41 23.6C64.83 22.44 62.34 21.05 60 20C57.51 18.76 54 17.37 52.63 20.37C52.4044 20.871 52.3099 21.4211 52.3554 21.9686C52.4008 22.5161 52.5848 23.0431 52.89 23.5C49.79 22.78 48.89 24.5 48.57 25.25C48.3201 25.9546 48.3264 26.7248 48.588 27.4252C48.8495 28.1257 49.3494 28.7115 50 29.08C49.5351 29.2091 49.1094 29.451 48.7605 29.7842C48.4116 30.1174 48.1503 30.5316 48 30.99C47.25 33.17 48.84 34.48 50.21 35.21C49.6296 35.5695 49.205 36.1334 49.0199 36.7906C48.8348 37.4477 48.9026 38.1504 49.21 38.76C50.14 40.54 52.78 41.37 59.21 43.36C63.51 44.75 67.84 46.69 72.32 47.23C61.85 60.38 46.58 70.18 43 72.37C36.4612 68.2862 30.2822 63.6528 24.53 58.52C29.16 56.7 33.27 53.6 37.53 51.1C44.58 46.91 49.37 44.88 47.53 41.05C47.315 40.675 47.018 40.3534 46.6613 40.1093C46.3046 39.8651 45.8974 39.7047 45.47 39.64C47.29 38.33 48.64 36.24 47.34 34.15C46.9923 33.5973 46.4915 33.1576 45.8986 32.8842C45.3056 32.6108 44.646 32.5155 44 32.61C46.19 30.61 45.87 28.82 45.12 27.61C44.6 26.75 42.97 25 39.19 27.22C39.6313 26.6021 39.8635 25.8594 39.8528 25.1001C39.842 24.3409 39.5887 23.605 39.13 23C38.8894 22.6373 38.5757 22.3289 38.2088 22.0947C37.842 21.8605 37.4302 21.7056 37 21.64C34.93 21.34 32.77 23.02 30.86 24.5C29.8 25.3 29 25.92 27.74 27C26.48 28.08 24.74 29.45 23.12 30.68C21 32.23 19 33.44 17.17 34.59C16.8115 34.8663 16.3879 35.0454 15.94 35.11C15.46 34.71 15.23 32.33 15.1 31.05C14.94 27.73 13.52 25.49 12.27 24.79C11.7793 24.4641 11.2208 24.2542 10.6369 24.1762C10.053 24.0982 9.45901 24.1543 8.89998 24.34C5.49998 25.47 6.22998 28.34 6.75998 30.44C6.93513 32.1665 6.87795 33.9087 6.58998 35.62C2.50998 26.7 2.05998 15.49 7.92998 9.61999C10.1126 7.39556 12.7703 5.69397 15.704 4.64275C18.6377 3.59153 21.7714 3.21794 24.87 3.54999C35.87 5.54999 41.66 15.55 41.71 15.61C41.8422 15.8406 42.033 16.0323 42.263 16.1655C42.493 16.2988 42.7541 16.369 43.02 16.369C43.2858 16.369 43.547 16.2988 43.777 16.1655C44.007 16.0323 44.1978 15.8406 44.33 15.61C44.38 15.51 50.17 5.49999 61.17 3.54999C72.86 2.25999 84.73 10.82 82.29 25.74Z" fill="#4F4557"/>
</svg>
